<?xml version="1.0" encoding="UTF-8" standalone="no"?>
<!-- Created with Inkscape (http://www.inkscape.org/) -->

<svg
   width="1280"
   height="80"
   viewBox="0 0 338.66666 21.166667"
   version="1.1"
   id="svg1"
   xml:space="preserve"
   inkscape:version="1.3.2 (091e20ef0f, 2023-11-25, custom)"
   sodipodi:docname="header.svg"
   inkscape:export-filename="header.tiff"
   inkscape:export-xdpi="96"
   inkscape:export-ydpi="96"
   xmlns:inkscape="http://www.inkscape.org/namespaces/inkscape"
   xmlns:sodipodi="http://sodipodi.sourceforge.net/DTD/sodipodi-0.dtd"
   xmlns="http://www.w3.org/2000/svg"
   xmlns:svg="http://www.w3.org/2000/svg"><sodipodi:namedview
     id="namedview1"
     pagecolor="#505050"
     bordercolor="#eeeeee"
     borderopacity="1"
     inkscape:showpageshadow="0"
     inkscape:pageopacity="0"
     inkscape:pagecheckerboard="0"
     inkscape:deskcolor="#505050"
     inkscape:document-units="px"
     inkscape:zoom="0.5"
     inkscape:cx="884"
     inkscape:cy="556"
     inkscape:window-width="2560"
     inkscape:window-height="1374"
     inkscape:window-x="0"
     inkscape:window-y="29"
     inkscape:window-maximized="1"
     inkscape:current-layer="layer1"
     showgrid="false"
     showguides="true"><sodipodi:guide
       position="169.33333,42.390079"
       orientation="-1,0"
       id="guide1"
       inkscape:locked="false"
       inkscape:label=""
       inkscape:color="rgb(0,134,229)" /></sodipodi:namedview><defs
     id="defs1" /><g
     inkscape:label="Layer 1"
     inkscape:groupmode="layer"
     id="layer1"><rect
       style="fill:#005305;fill-opacity:1;stroke:none;stroke-width:0.365342;stroke-dasharray:none;stroke-opacity:1"
       id="rect1"
       width="338.66666"
       height="21.166666"
       x="0.0013786867"
       y="0.0010983214" /><g
       id="g1"
       transform="matrix(0.0507585,0,0,0.0507585,8.3652538,2.1139123)"
       style="fill:#000000"><g
         id="Marks__x28_no_editing_x29_"
         style="fill:#000000">
</g><g
         id="Logotype__x28_no_editing_x29_"
         style="fill:#000000">
	<g
   id="g4"
   style="fill:#000000">
		<polygon
   points="265.9,178.2 88.5,178.2 265.9,1.2 177,1.2 0,178.2 0,250.2 177,250.2 177,338.8 265.9,338.8 "
   id="polygon1"
   style="fill:#000000" />
		<polygon
   points="392.2,1.2 303.7,1.2 303.7,89.7 "
   id="polygon2"
   style="fill:#000000" />
		<polygon
   points="481,89.7 481,1.2 392.2,1.2 392.2,89.7 303.7,178.2 303.7,267 392.2,267 392.2,178.2 "
   id="polygon3"
   style="fill:#000000" />
		<polygon
   points="392.2,267 481,267 481,178.2 "
   id="polygon4"
   style="fill:#000000" />
	</g>
	<rect
   x="566.79999"
   y="178.5"
   width="7"
   height="88.199997"
   id="rect4"
   style="fill:#000000" />
</g><g
         id="Campus_name"
         style="fill:#000000">
	<g
   id="g10"
   style="fill:#000000">
		<path
   d="m 638.8,206.2 h -15 l -1,9.1 h 14 l -1,9.1 h -14 l -2.4,19.6 h -10.8 l 5.9,-46.5 h 25.9 z"
   id="path4"
   style="fill:#000000" />
		<path
   d="m 658.8,197.1 -5.6,46.5 h -10.8 l 5.6,-46.5 z"
   id="path5"
   style="fill:#000000" />
		<path
   d="m 683.9,197.1 c 4.5,0 8.7,0.3 12.2,4.2 1.7,1.7 3.5,4.5 3.5,9.4 0,4.5 -1.4,8 -3.8,10.1 -2.1,2.1 -4.9,3.1 -7.3,3.8 l 11.9,18.9 h -12.6 l -11.2,-18.5 -2.1,18.5 h -10.8 l 5.6,-46.5 z m -6.6,21.3 h 2.8 c 1.7,0 4.5,-0.3 6.3,-1.7 1.7,-1.4 2.4,-3.5 2.4,-5.6 0,-1.4 -0.3,-3.5 -2.1,-4.5 -1.4,-1 -3.5,-1 -5.9,-1 h -1.7 z"
   id="path6"
   style="fill:#000000" />
		<path
   d="M 736.4,206.2 H 721 l -1,9.1 h 14.7 l -1,9.1 H 719 l -1.4,10.5 H 733 l -1,9.1 h -26 l 5.6,-46.5 h 25.9 z"
   id="path7"
   style="fill:#000000" />
		<path
   d="m 741,243.6 5.9,-46.5 h 9.4 l 21.3,30.4 3.8,-30.4 h 10.8 l -5.6,46.5 h -9.4 l -21.7,-30.4 -3.8,30.4 z"
   id="path8"
   style="fill:#000000" />
		<path
   d="m 812.3,234.5 h 19.6 l -1,9.1 h -37.8 l 26.6,-37.4 h -18.5 l 1,-9.1 h 36.4 z"
   id="path9"
   style="fill:#000000" />
		<path
   d="M 870.4,206.2 H 855 l -1,9.1 h 14.7 l -1,9.1 H 853 l -1.4,10.5 H 867 l -1,9.1 h -26 l 5.6,-46.5 h 25.9 z"
   id="path10"
   style="fill:#000000" />
	</g>
</g><g
         id="Company_name"
         style="fill:#000000">
	<g
   id="g21"
   style="fill:#000000">
		<path
   d="m 623.4,272.3 v 37.4 h 14.3 v 9.1 h -25.2 v -46.5 z"
   id="path11"
   style="fill:#000000" />
		<path
   d="m 652.8,287.7 v 17.1 c 0,1.4 0,3.5 1.7,4.9 0.7,0.7 2.1,1.4 4.2,1.4 1.7,0 3.5,-0.7 4.2,-1.4 1.4,-1.4 1.7,-3.5 1.7,-4.9 v -17.1 h 10.1 v 18.2 c 0,3.5 -0.3,7 -3.5,10.1 -3.5,3.5 -8.7,4.2 -12.6,4.2 -3.8,0 -9.1,-0.7 -12.6,-4.2 -2.8,-2.8 -3.5,-5.9 -3.5,-9.4 v -18.9 z"
   id="path12"
   style="fill:#000000" />
		<path
   d="m 688.5,268.4 c 3.1,0 5.9,2.4 5.9,5.9 0,3.5 -2.4,5.9 -5.9,5.9 -3.5,0 -5.9,-2.4 -5.9,-5.9 0,-3.5 2.4,-5.9 5.9,-5.9 z m 4.9,19.3 v 31.1 h -10.1 v -31.1 z"
   id="path13"
   style="fill:#000000" />
		<path
   d="m 721,295.7 c -1.4,-1 -3.5,-1.7 -5.6,-1.7 -1,0 -2.1,0.3 -2.8,1 -0.3,0.3 -0.7,1 -0.7,1.4 0,0.7 0.3,1 1,1.4 0.7,0.3 1.7,0.7 3.1,1 l 2.8,0.7 c 1.7,0.7 3.5,1.4 5.2,2.8 1.7,1.7 2.4,3.5 2.4,5.9 0,4.2 -1.7,6.6 -3.1,8 -3.1,3.1 -7,3.5 -10.1,3.5 -4.2,0 -8.7,-1 -12.9,-4.5 l 4.2,-6.6 c 1,0.7 2.4,1.7 3.5,2.4 1.4,0.7 2.8,1 4.2,1 0.7,0 2.1,0 3.1,-0.7 0.7,-0.3 1,-1.4 1,-2.1 0,-0.7 -0.3,-1.4 -1,-1.7 -0.7,-0.3 -1.7,-0.7 -3.1,-1 l -2.4,-0.7 c -1.7,-0.7 -3.8,-1.4 -4.9,-2.8 -1.4,-1.4 -2.1,-3.1 -2.1,-5.6 0,-3.1 1,-5.6 3.1,-7.3 2.8,-2.4 6.6,-3.1 9.4,-3.1 4.5,0 7.7,1 10.5,2.8 z"
   id="path14"
   style="fill:#000000" />
		<path
   d="m 751.5,295.7 c -1.4,-1 -3.5,-1.7 -5.6,-1.7 -1,0 -2.1,0.3 -2.8,1 -0.3,0.3 -0.7,1 -0.7,1.4 0,0.7 0.3,1 1,1.4 0.7,0.3 1.7,0.7 3.1,1 l 2.8,0.7 c 1.7,0.7 3.5,1.4 5.2,2.8 1.7,1.7 2.4,3.5 2.4,5.9 0,4.2 -1.7,6.6 -3.1,8 -3.1,3.1 -7,3.5 -10.1,3.5 -4.2,0 -8.7,-1 -12.9,-4.5 l 4.2,-6.6 c 1,0.7 2.4,1.7 3.5,2.4 1.4,0.7 2.8,1 4.2,1 0.7,0 2.1,0 3.1,-0.7 0.7,-0.3 1,-1.4 1,-2.1 0,-0.7 -0.3,-1.4 -1,-1.7 -0.7,-0.3 -1.7,-0.7 -3.1,-1 l -2.4,-0.7 c -1.7,-0.7 -3.8,-1.4 -4.9,-2.8 -1.4,-1.4 -2.1,-3.1 -2.1,-5.6 0,-3.1 1,-5.6 3.1,-7.3 2.8,-2.4 6.6,-3.1 9.4,-3.1 4.5,0 7.7,1 10.5,2.8 z"
   id="path15"
   style="fill:#000000" />
		<path
   d="m 789.3,268.1 v 23.4 c 2.4,-3.5 6.3,-4.5 9.8,-4.5 4.2,0 8,1.7 10.8,4.2 3.1,2.8 4.9,7 4.9,12.2 0,4.9 -1.7,9.4 -4.9,12.6 -2.8,2.8 -5.9,4.2 -10.8,4.2 -5.6,0 -8.4,-2.4 -9.8,-4.9 v 3.8 H 779.2 V 268 Z m 1.7,29.7 c -1,1.4 -2.1,3.1 -2.1,5.6 0,2.4 1,4.5 2.4,5.6 1.7,1.4 3.8,2.4 5.6,2.4 1.8,0 3.8,-0.7 5.2,-2.1 1.4,-1.4 2.4,-3.5 2.4,-5.6 0,-2.4 -1,-4.5 -2.4,-5.9 -1.7,-1.4 -3.5,-2.1 -5.2,-2.1 -2.4,-0.3 -4.1,0.4 -5.9,2.1 z"
   id="path16"
   style="fill:#000000" />
		<path
   d="m 832.3,315 -15,-27.3 h 11.5 l 8.7,16.8 8.7,-16.8 h 11.2 l -25.2,47.2 H 821 Z"
   id="path17"
   style="fill:#000000" />
		<path
   d="m 905.4,281.4 h -15 v 9.1 h 14 v 9.1 h -14 v 19.6 h -10.8 v -46.5 h 25.9 z"
   id="path18"
   style="fill:#000000" />
		<path
   d="m 947,317.4 c -4.2,2.1 -7.3,2.4 -10.1,2.4 -8.7,0 -14.3,-2.8 -18.2,-6.6 -4.2,-4.2 -7.3,-10.1 -7.3,-17.8 0,-7.3 3.1,-13.6 7.3,-17.5 4.2,-3.8 10.1,-6.6 17.5,-6.6 3.1,0 6.6,0.7 11.2,2.4 v 12.6 c -2.4,-2.4 -5.9,-4.9 -10.8,-4.9 -3.8,0 -7,1.4 -9.4,3.5 -2.4,2.4 -4.5,6.3 -4.5,10.8 0,4.9 2.1,8.4 4.2,10.1 1,1 4.2,3.8 10.1,3.8 2.8,0 6.6,-0.7 10.8,-4.9 v 12.6 H 947 Z"
   id="path19"
   style="fill:#000000" />
		<path
   d="m 972.2,272.3 c 5.9,0 9.8,2.1 11.9,4.2 2.1,1.7 4.2,5.2 4.2,10.5 0,2.8 -0.7,6.6 -3.5,9.4 -1.7,1.4 -3.8,2.8 -6.6,3.5 l 14.3,19.2 h -13.3 l -12.6,-18.5 v 18.5 h -10.8 v -46.5 h 16.4 z m -5.6,21.3 h 2.4 c 2.1,0 4.5,-0.3 6.3,-2.1 0.7,-0.7 1.7,-2.1 1.7,-4.5 0,-2.8 -1.4,-4.2 -2.1,-4.9 -1.7,-1.4 -4.5,-1.4 -5.9,-1.4 h -2.4 z"
   id="path20"
   style="fill:#000000" />
		<path
   d="m 1024,281.4 h -15 v 9.1 h 14 v 9.1 h -14 v 19.6 h -10.8 v -46.5 h 25.9 v 8.7 z"
   id="path21"
   style="fill:#000000" />
	</g>
</g><g
         id="Guides__x28_hide_if_needed_x29_"
         style="fill:#000000">
</g></g><text
       xml:space="preserve"
       style="font-size:22.9508px;font-family:'JetBrainsMono Nerd Font Mono';-inkscape-font-specification:'JetBrainsMono Nerd Font Mono';fill:none;stroke:#000000;stroke-width:0.5;stroke-dasharray:none;stroke-opacity:1"
       x="147.65228"
       y="18.407228"
       id="text1"><tspan
         sodipodi:role="line"
         id="tspan1"
         style="font-style:normal;font-variant:normal;font-weight:normal;font-stretch:normal;font-family:'Russo One';-inkscape-font-specification:'Russo One';fill:none;stroke:#000000;stroke-width:0.5;stroke-dasharray:none;stroke-opacity:1"
         x="147.65228"
         y="18.407228">FdF</tspan></text></g></svg>
